<?xml version="1.0" encoding="UTF-8"?>
<svg width="47px" height="59px" viewBox="0 0 47 59" version="1.1" xmlns="http://www.w3.org/2000/svg" xmlns:xlink="http://www.w3.org/1999/xlink">
    <!-- Generator: Sketch 43.2 (39069) - http://www.bohemiancoding.com/sketch -->
    <title>001-dbf</title>
    <desc>Created with Sketch.</desc>
    <defs></defs>
    <g id="Welcome" stroke="none" stroke-width="1" fill="none" fill-rule="evenodd">
        <g id="Desktop-HD" transform="translate(-1313.000000, -661.000000)" fill-rule="nonzero" fill="#000000">
            <g id="others" transform="translate(316.000000, 35.000000)">
                <g id="project" transform="translate(565.143805, 0.000000)">
                    <g id="normal">
                        <g id="Icons" transform="translate(48.023576, 626.883614)">
                            <g id="001-dbf" transform="translate(384.188610, 0.000000)">
                                <path d="M45.1599956,12.0763085 L44.3853937,11.3123113 L34.2432323,1.30900169 L33.4686304,0.545004489 C33.1179999,0.199174368 32.6317388,0 32.1344263,0 L2.97684243,0 C1.78530172,0 0.50233588,0.907680203 0.50233588,2.89942388 L0.50233588,38.6457728 L0.50233588,55.0325714 L0.50233588,55.4913661 C0.50233588,56.3207638 1.3482695,57.1293523 2.34892258,57.3840181 C2.39915616,57.3969 2.44738041,57.4157274 2.49962334,57.4256366 C2.65635214,57.456355 2.81609495,57.4732006 2.97684243,57.4732006 L43.2380586,57.4732006 C43.398806,57.4732006 43.5585489,57.456355 43.7152777,57.4256366 C43.7675206,57.4157274 43.8157448,57.3969 43.8659784,57.3840181 C44.8666315,57.1293523 45.7125651,56.3207638 45.7125651,55.4913661 L45.7125651,55.0325714 L45.7125651,38.6457728 L45.7125651,13.8510413 C45.7125651,13.0910078 45.6201353,12.5301487 45.1599956,12.0763085 Z M42.1309103,11.891007 L33.656504,11.891007 L33.656504,3.53262 L42.1309103,11.891007 Z M2.97684243,55.4913661 C2.90551073,55.4913661 2.84121174,55.4656023 2.77791742,55.4428112 C2.62118862,55.3694833 2.5116794,55.2149002 2.5116794,55.0325714 L2.5116794,40.6276073 L43.7032216,40.6276073 L43.7032216,55.0325714 C43.7032216,55.2149002 43.5937124,55.3684924 43.4369836,55.4428112 C43.3736893,55.4656023 43.3093903,55.4913661 43.2380586,55.4913661 L2.97684243,55.4913661 Z M2.5116794,38.6457728 L2.5116794,2.89942388 C2.5116794,2.68439484 2.54483357,1.9818345 2.97684243,1.9818345 L31.7054314,1.9818345 C31.6722773,2.10669008 31.6471605,2.23550932 31.6471605,2.36928315 L31.6471605,13.8728415 L43.3103949,13.8728415 C43.4460256,13.8728415 43.5756283,13.8480686 43.7022169,13.8153683 C43.7022169,13.8302321 43.7032216,13.8361776 43.7032216,13.8510413 L43.7032216,38.6457728 L2.5116794,38.6457728 Z" id="Shape"></path>
                                <path d="M19.5910993,12.8819243 L7.53503821,12.8819243 L7.53503821,16.8455933 L7.53503821,18.8274278 L7.53503821,20.8092623 L7.53503821,22.7910968 L7.53503821,24.7729313 L7.53503821,26.7547658 L7.53503821,28.7366003 L7.53503821,30.7184348 L7.53503821,34.6821038 L17.5817558,34.6821038 L19.5910993,34.6821038 L40.6892063,34.6821038 L40.6892063,30.7184348 L40.6892063,28.7366003 L40.6892063,26.7547658 L40.6892063,24.7729313 L40.6892063,22.7910968 L40.6892063,20.8092623 L40.6892063,16.8455933 L19.5910993,16.8455933 L19.5910993,12.8819243 Z M9.54438173,18.8274278 L17.5817558,18.8274278 L17.5817558,20.8092623 L9.54438173,20.8092623 L9.54438173,18.8274278 Z M9.54438173,22.7910968 L17.5817558,22.7910968 L17.5817558,24.7729313 L9.54438173,24.7729313 L9.54438173,22.7910968 Z M9.54438173,26.7547658 L17.5817558,26.7547658 L17.5817558,28.7366003 L9.54438173,28.7366003 L9.54438173,26.7547658 Z M17.5817558,32.7002693 L9.54438173,32.7002693 L9.54438173,30.7184348 L17.5817558,30.7184348 L17.5817558,32.7002693 Z M38.6798628,32.7002693 L19.5910993,32.7002693 L19.5910993,30.7184348 L38.6798628,30.7184348 L38.6798628,32.7002693 Z M38.6798628,28.7366003 L19.5910993,28.7366003 L19.5910993,26.7547658 L38.6798628,26.7547658 L38.6798628,28.7366003 Z M38.6798628,24.7729313 L19.5910993,24.7729313 L19.5910993,22.7910968 L38.6798628,22.7910968 L38.6798628,24.7729313 Z M38.6798628,18.8274278 L38.6798628,20.8092623 L19.5910993,20.8092623 L19.5910993,18.8274278 L38.6798628,18.8274278 Z M9.54438173,16.8455933 L9.54438173,14.8637588 L17.5817558,14.8637588 L17.5817558,16.8455933 L9.54438173,16.8455933 Z" id="Shape"></path>
                            </g>
                        </g>
                    </g>
                </g>
            </g>
        </g>
    </g>
</svg>