<?xml version="1.0" encoding="UTF-8"?>
<svg width="47px" height="59px" viewBox="0 0 47 59" version="1.1" xmlns="http://www.w3.org/2000/svg" xmlns:xlink="http://www.w3.org/1999/xlink">
    <!-- Generator: Sketch 43.2 (39069) - http://www.bohemiancoding.com/sketch -->
    <title>005-javascript</title>
    <desc>Created with Sketch.</desc>
    <defs></defs>
    <g id="Welcome" stroke="none" stroke-width="1" fill="none" fill-rule="evenodd">
        <g id="Desktop-HD" transform="translate(-1218.000000, -661.000000)" fill-rule="nonzero" fill="#000000">
            <g id="others" transform="translate(316.000000, 35.000000)">
                <g id="project" transform="translate(565.143805, 0.000000)">
                    <g id="normal">
                        <g id="Icons" transform="translate(48.023576, 626.883614)">
                            <g id="005-javascript" transform="translate(289.208648, 0.000000)">
                                <path d="M45.158991,12.0763085 L43.7916327,10.7276702 L34.2432323,1.30900169 L34.2422276,1.30801077 L33.4676257,0.544013571 C33.1109672,0.193228864 32.6377668,0 32.1344263,0 L2.97684243,0 C1.78429705,0 0.50233588,0.907680203 0.50233588,2.89942388 L0.50233588,38.6457728 L0.50233588,55.0325714 L0.50233588,55.4913661 C0.50233588,56.3207638 1.34726483,57.1283614 2.34691323,57.3830271 C2.39815149,57.3969 2.44738041,57.4157274 2.49962334,57.4256366 C2.65635214,57.456355 2.81609495,57.4732006 2.97684243,57.4732006 L43.2380586,57.4732006 C43.398806,57.4732006 43.5585489,57.456355 43.7152777,57.4256366 C43.7675206,57.4157274 43.8167495,57.3969 43.8679878,57.3830271 C44.8676362,57.1283614 45.7125651,56.3207638 45.7125651,55.4913661 L45.7125651,55.0325714 L45.7125651,38.6457728 L45.7125651,13.8510413 C45.7125651,13.0910078 45.6191306,12.5291577 45.158991,12.0763085 Z M33.656504,3.53262 L42.1309103,11.891007 L33.656504,11.891007 L33.656504,3.53262 Z M2.97684243,55.4913661 C2.90551073,55.4913661 2.84121174,55.4665932 2.77791742,55.4428112 C2.6221933,55.3694833 2.5116794,55.2149002 2.5116794,55.0325714 L2.5116794,40.6276073 L43.7032216,40.6276073 L43.7032216,55.0325714 C43.7032216,55.2149002 43.5927077,55.3694833 43.4369836,55.4428112 C43.3736893,55.4665932 43.3093903,55.4913661 43.2380586,55.4913661 L2.97684243,55.4913661 Z M2.5116794,38.6457728 L2.5116794,2.89942388 C2.5116794,2.68439484 2.54483357,1.9818345 2.97684243,1.9818345 L31.7054314,1.9818345 C31.6722773,2.10669008 31.6471605,2.23550932 31.6471605,2.36928315 L31.6471605,13.6548397 C31.1126751,13.1791995 30.4124189,12.8819243 29.6378169,12.8819243 C29.0822335,12.8819243 28.6331452,13.3258552 28.6331452,13.8728415 C28.6331452,14.4198279 29.0822335,14.8637588 29.6378169,14.8637588 C30.1923958,14.8637588 30.6424887,15.3086806 30.6424887,15.854676 L30.6424887,19.818345 C30.6424887,21.0074457 31.1870208,22.0637635 32.0309451,22.7910968 C31.1870208,23.5184301 30.6424887,24.5747478 30.6424887,25.7638486 L30.6424887,29.7275176 C30.6424887,30.273513 30.1923958,30.7184348 29.6378169,30.7184348 C29.0822335,30.7184348 28.6331452,31.1623657 28.6331452,31.7093521 C28.6331452,32.2563384 29.0822335,32.7002693 29.6378169,32.7002693 C31.299544,32.7002693 32.6518322,31.3664947 32.6518322,29.7275176 L32.6518322,25.7638486 C32.6518322,24.6708668 33.5530228,23.782014 34.6611757,23.782014 C35.2167592,23.782014 35.6658475,23.3380831 35.6658475,22.7910968 C35.6658475,22.2441105 35.2167592,21.8001795 34.6611757,21.8001795 C33.5530228,21.8001795 32.6518322,20.9113268 32.6518322,19.818345 L32.6518322,15.854676 C32.6518322,15.0906788 32.349426,14.4000095 31.8681882,13.8728415 L43.3103949,13.8728415 C43.4460256,13.8728415 43.5766329,13.8480686 43.7032216,13.8153683 C43.7032216,13.8302321 43.7042263,13.8361776 43.7042263,13.8510413 L43.7042263,38.6457728 L2.5116794,38.6457728 Z" id="Shape"></path>
                                <path d="M14.5677405,19.818345 L14.5677405,15.854676 C14.5677405,15.3086806 15.0178335,14.8637588 15.5724123,14.8637588 C16.1279958,14.8637588 16.5770841,14.4198279 16.5770841,13.8728415 C16.5770841,13.3258552 16.1279958,12.8819243 15.5724123,12.8819243 C13.9106852,12.8819243 12.558397,14.2156989 12.558397,15.854676 L12.558397,19.818345 C12.558397,20.9113268 11.6572064,21.8001795 10.5490535,21.8001795 C9.99347,21.8001795 9.54438173,22.2441105 9.54438173,22.7910968 C9.54438173,23.3380831 9.99347,23.782014 10.5490535,23.782014 C11.6572064,23.782014 12.558397,24.6708668 12.558397,25.7638486 L12.558397,29.7275176 C12.558397,31.3664947 13.9106852,32.7002693 15.5724123,32.7002693 C16.1279958,32.7002693 16.5770841,32.2563384 16.5770841,31.7093521 C16.5770841,31.1623657 16.1279958,30.7184348 15.5724123,30.7184348 C15.0178335,30.7184348 14.5677405,30.273513 14.5677405,29.7275176 L14.5677405,25.7638486 C14.5677405,24.5747478 14.0232084,23.5184301 13.1792842,22.7910968 C14.0232084,22.0637635 14.5677405,21.0074457 14.5677405,19.818345 Z" id="Shape"></path>
                                <ellipse id="Oval" cx="22.6051146" cy="19.3228864" rx="1.50700764" ry="1.48637588"></ellipse>
                                <path d="M22.6051146,24.7729313 C22.0495311,24.7729313 21.6004429,25.2168622 21.6004429,25.7638486 L21.6004429,28.7366003 C21.6004429,29.2835866 22.0495311,29.7275176 22.6051146,29.7275176 C23.1606981,29.7275176 23.6097864,29.2835866 23.6097864,28.7366003 L23.6097864,25.7638486 C23.6097864,25.2168622 23.1606981,24.7729313 22.6051146,24.7729313 Z" id="Shape"></path>
                            </g>
                        </g>
                    </g>
                </g>
            </g>
        </g>
    </g>
</svg>