<?xml version="1.0" encoding="UTF-8"?>
<svg width="21px" height="22px" viewBox="0 0 21 22" version="1.1" xmlns="http://www.w3.org/2000/svg" xmlns:xlink="http://www.w3.org/1999/xlink">
    <!-- Generator: Sketch 43.2 (39069) - http://www.bohemiancoding.com/sketch -->
    <title>005-telephone-handset</title>
    <desc>Created with Sketch.</desc>
    <defs></defs>
    <g id="Post" stroke="none" stroke-width="1" fill="none" fill-rule="evenodd">
        <g id="Desktop" transform="translate(-36.000000, -504.000000)" fill-rule="nonzero" fill="#FFFFFF">
            <g id="Sidebar" transform="translate(1.000000, 0.000000)">
                <g id="Phone" transform="translate(35.000000, 503.508293)">
                    <g id="005-telephone-handset" transform="translate(0.000000, 1.155199)">
                        <path d="M20.9214547,15.9874126 C20.8727775,15.8928576 19.7049957,13.6703901 16.4721525,12.8851497 C16.2474559,12.8264181 16.0156508,12.8865638 15.842456,13.0356082 C14.8220711,13.9053636 13.4124569,14.8382343 12.8042274,14.9313281 C8.72555907,12.9353025 6.4501123,9.10511674 6.36424461,8.37860792 C6.31415513,7.97022069 7.24867243,6.53586895 8.32343087,5.36948598 C8.45938805,5.22190283 8.52807279,5.02129155 8.50947754,4.82068028 C8.23615088,1.67255396 4.95604271,0.127903733 4.81721386,0.0648356214 C4.68554065,0.00464281269 4.53960323,-0.0139759496 4.39931501,0.0103934178 C0.612709848,0.639471903 0.0431302389,2.84614876 0.0202039418,2.93787562 C-0.011290294,3.06684001 -0.00554695053,3.20009378 0.0345152238,3.32476879 C4.55108992,17.3558681 13.9376903,19.9566028 17.0245962,20.8149041 L17.6042031,20.9825673 L17.8246157,21.0141013 L18.1208686,20.9496191 C18.2153043,20.906631 20.4449926,19.854883 20.9902336,16.4244586 C21.0159374,16.2768754 20.9901865,16.1220805 20.9214547,15.9874126 Z" id="Shape"></path>
                    </g>
                </g>
            </g>
        </g>
    </g>
</svg>