<?xml version="1.0" encoding="UTF-8"?>
<svg width="46px" height="59px" viewBox="0 0 46 59" version="1.1" xmlns="http://www.w3.org/2000/svg" xmlns:xlink="http://www.w3.org/1999/xlink">
    <!-- Generator: Sketch 43.2 (39069) - http://www.bohemiancoding.com/sketch -->
    <title>002-html</title>
    <desc>Created with Sketch.</desc>
    <defs></defs>
    <g id="Welcome" stroke="none" stroke-width="1" fill="none" fill-rule="evenodd">
        <g id="Desktop-HD" transform="translate(-929.000000, -661.000000)" fill-rule="nonzero" fill="#000000">
            <g id="others" transform="translate(316.000000, 35.000000)">
                <g id="project" transform="translate(565.143805, 0.000000)">
                    <g id="normal">
                        <g id="Icons" transform="translate(48.023576, 626.883614)">
                            <g id="002-html">
                                <path d="M45.158991,12.0763085 L43.7916327,10.7276702 L34.2432323,1.30900169 L34.2422276,1.30801077 L33.4676257,0.544013571 C33.1109672,0.193228864 32.6377668,0 32.1344263,0 L2.97684243,0 C1.78429705,0 0.50233588,0.907680203 0.50233588,2.89942388 L0.50233588,38.6457728 L0.50233588,55.0325714 L0.50233588,55.4913661 C0.50233588,56.3207638 1.34726483,57.1283614 2.34691323,57.3830271 C2.39815149,57.3969 2.44738041,57.4157274 2.49962334,57.4256366 C2.65635214,57.456355 2.81609495,57.4732006 2.97684243,57.4732006 L43.2380586,57.4732006 C43.398806,57.4732006 43.5585489,57.456355 43.7152777,57.4256366 C43.7675206,57.4157274 43.8167495,57.3969 43.8679878,57.3830271 C44.8676362,57.1283614 45.7125651,56.3207638 45.7125651,55.4913661 L45.7125651,55.0325714 L45.7125651,38.6457728 L45.7125651,13.8510413 C45.7125651,13.0910078 45.6191306,12.5291577 45.158991,12.0763085 Z M33.656504,3.53262 L42.1309103,11.891007 L33.656504,11.891007 L33.656504,3.53262 Z M2.97684243,55.4913661 C2.90551073,55.4913661 2.84121174,55.4665932 2.77791742,55.4428112 C2.6221933,55.3694833 2.5116794,55.2149002 2.5116794,55.0325714 L2.5116794,40.6276073 L43.7032216,40.6276073 L43.7032216,55.0325714 C43.7032216,55.2149002 43.5927077,55.3694833 43.4369836,55.4428112 C43.3736893,55.4665932 43.3093903,55.4913661 43.2380586,55.4913661 L2.97684243,55.4913661 Z M2.5116794,38.6457728 L2.5116794,2.89942388 C2.5116794,2.68439484 2.54483357,1.9818345 2.97684243,1.9818345 L31.7054314,1.9818345 C31.6722773,2.10669008 31.6471605,2.23550932 31.6471605,2.36928315 L31.6471605,13.8728415 L43.3093903,13.8728415 C43.4450209,13.8728415 43.5756283,13.8480686 43.7022169,13.8153683 C43.7022169,13.8302321 43.7032216,13.8361776 43.7032216,13.8510413 L43.7032216,38.6457728 L2.5116794,38.6457728 Z" id="Shape"></path>
                                <path d="M18.2920587,17.135932 C17.8992321,16.7484834 17.2642795,16.7484834 16.8714529,17.135932 L10.8434223,23.0814355 C10.4505957,23.4688842 10.4505957,24.0951439 10.8434223,24.4825925 L16.8714529,30.4280961 C17.0673639,30.6213249 17.3245598,30.7184348 17.5817558,30.7184348 C17.8389518,30.7184348 18.0961478,30.6213249 18.2920587,30.4280961 C18.6848854,30.0406474 18.6848854,29.4143877 18.2920587,29.0269391 L12.9743311,23.782014 L18.2920587,18.537089 C18.6848854,18.1496404 18.6848854,17.5233807 18.2920587,17.135932 Z" id="Shape"></path>
                                <path d="M30.3481199,17.135932 C29.9552932,16.7484834 29.3203407,16.7484834 28.927514,17.135932 C28.5346873,17.5233807 28.5346873,18.1496404 28.927514,18.537089 L34.2452416,23.782014 L28.927514,29.0269391 C28.5346873,29.4143877 28.5346873,30.0406474 28.927514,30.4280961 C29.123425,30.6213249 29.380621,30.7184348 29.6378169,30.7184348 C29.8950129,30.7184348 30.1522089,30.6213249 30.3481199,30.4280961 L36.3761504,24.4825925 C36.7689771,24.0951439 36.7689771,23.4688842 36.3761504,23.0814355 L30.3481199,17.135932 Z" id="Shape"></path>
                            </g>
                        </g>
                    </g>
                </g>
            </g>
        </g>
    </g>
</svg>