<?xml version="1.0" encoding="UTF-8"?>
<svg width="47px" height="59px" viewBox="0 0 47 59" version="1.1" xmlns="http://www.w3.org/2000/svg" xmlns:xlink="http://www.w3.org/1999/xlink">
    <!-- Generator: Sketch 43.2 (39069) - http://www.bohemiancoding.com/sketch -->
    <title>004-psd</title>
    <desc>Created with Sketch.</desc>
    <defs></defs>
    <g id="Welcome" stroke="none" stroke-width="1" fill="none" fill-rule="evenodd">
        <g id="Desktop-HD" transform="translate(-1123.000000, -661.000000)" fill-rule="nonzero" fill="#000000">
            <g id="others" transform="translate(316.000000, 35.000000)">
                <g id="project" transform="translate(565.143805, 0.000000)">
                    <g id="normal">
                        <g id="Icons" transform="translate(48.023576, 626.883614)">
                            <g id="004-psd" transform="translate(194.228686, 0.000000)">
                                <path d="M45.158991,12.0763085 L39.3138107,6.31115198 L34.2432323,1.30900169 L34.2432323,1.30900169 L33.469635,0.545995406 C33.1179999,0.199174368 32.6317388,0 32.1344263,0 L2.97684243,0 C1.61249818,0 0.50233588,1.09496356 0.50233588,2.44062919 L0.50233588,38.6457728 L0.50233588,55.0325714 C0.50233588,56.378237 1.61249818,57.4732006 2.97684243,57.4732006 L43.2380586,57.4732006 C44.6024028,57.4732006 45.7125651,56.378237 45.7125651,55.0325714 L45.7125651,38.6457728 L45.7125651,13.3922467 C45.7125651,12.9017426 45.5106261,12.4211478 45.158991,12.0763085 Z M33.656504,11.891007 L33.656504,8.82213629 L33.656504,3.53262 L42.1309103,11.891007 L35.3584179,11.891007 L33.656504,11.891007 Z M18.1061945,30.8849089 C17.951475,30.7887899 17.7786715,30.7184348 17.5817558,30.7184348 C17.0784153,30.7184348 16.6785559,31.0900288 16.6062195,31.56666 C16.3068273,31.6350333 15.9993978,31.6786336 15.6789075,31.6786336 L14.5627172,31.6845791 C14.5496564,31.1494838 14.1096102,30.7184348 13.5630688,30.7184348 C13.0125086,30.7184348 12.5684437,31.1554293 12.561411,31.6964701 L10.2687501,31.7093521 C10.5319741,31.3169488 10.7359224,30.8938272 10.9016933,30.4677327 C11.0785155,30.6183522 11.3015526,30.7184348 11.5537252,30.7184348 C12.1083041,30.7184348 12.558397,30.2745039 12.558397,29.7275176 C12.558397,29.1805312 12.1083041,28.7366003 11.5537252,28.7366003 C11.4904309,28.7366003 11.4341693,28.7613732 11.373889,28.7722733 C11.4462254,28.3729337 11.4924403,28.0033215 11.5175571,27.7010918 L11.5999401,27.2016695 C11.6170196,27.0381681 11.6592158,26.883585 11.6943793,26.7270201 C12.1796358,26.656665 12.558397,26.261289 12.558397,25.7638486 C12.558397,25.5577378 12.4790279,25.3763999 12.3695187,25.2178531 C12.5453363,24.9770603 12.7432566,24.7550948 12.9672984,24.5588932 C13.1360833,24.6847397 13.336013,24.7729313 13.5630688,24.7729313 C14.1176476,24.7729313 14.5677405,24.3290004 14.5677405,23.782014 C14.5677405,23.7572411 14.5556845,23.7374228 14.5536751,23.7126498 C14.9133476,23.6105854 15.2870855,23.5402302 15.6789075,23.5402302 C15.8004728,23.5402302 15.9150054,23.5650032 16.0345613,23.5759033 L16.2023415,23.5967125 C16.3379722,23.6135581 16.4665702,23.6492311 16.5981822,23.6779677 C16.5941635,23.7146317 16.5770841,23.7453501 16.5770841,23.782014 C16.5770841,24.3290004 17.027177,24.7729313 17.5817558,24.7729313 C17.8560312,24.7729313 18.1041851,24.6629395 18.285026,24.4875471 C18.4769184,24.6421302 18.6537406,24.8105862 18.8144881,24.9958877 C18.8355862,25.0206606 18.8556796,25.0444426 18.8767777,25.0702065 C18.6979461,25.2485716 18.5864276,25.4933281 18.5864276,25.7638486 C18.5864276,26.3108349 19.0365205,26.7547658 19.5910993,26.7547658 C19.6262628,26.7547658 19.656403,26.7389111 19.6905618,26.7349475 C19.7006086,26.7825115 19.7196973,26.8261118 19.7287394,26.8746668 L19.7337627,26.9004306 C19.7749543,27.1323053 19.8060991,27.3671527 19.8060991,27.6099274 C19.8060991,28.0053034 19.7307487,28.380861 19.6232488,28.7425458 C19.6111928,28.7425458 19.6021507,28.7366003 19.5910993,28.7366003 C19.0365205,28.7366003 18.5864276,29.1805312 18.5864276,29.7275176 C18.5864276,29.9336283 18.664792,30.1139753 18.7743012,30.272522 C18.5733668,30.4994421 18.3523391,30.7065438 18.1061945,30.8849089 Z M20.6118458,24.0267706 C20.6048131,24.0178524 20.5987851,24.009925 20.5917524,24.0010068 C19.983926,23.1973729 19.1801886,22.549313 18.2488579,22.1232186 L20.381776,20.0195012 L23.2229877,22.8218152 L21.1423125,24.8730139 C20.9906071,24.5757388 20.8117755,24.2933273 20.6118458,24.0267706 Z M24.645603,21.4206582 L21.8043912,18.6183442 L24.6044114,15.854676 C26.090321,14.3891094 29.4871162,11.6115684 31.6471605,10.3540944 L31.6471605,13.7648315 C30.2215312,15.6574835 28.4121174,17.7047185 27.4466278,18.6579809 L24.645603,21.4206582 Z M43.7032216,55.0325714 C43.7032216,55.2852553 43.4942499,55.4913661 43.2380586,55.4913661 L2.97684243,55.4913661 C2.72065113,55.4913661 2.5116794,55.2852553 2.5116794,55.0325714 L2.5116794,40.6276073 L43.7032216,40.6276073 L43.7032216,55.0325714 Z M2.5116794,38.6457728 L2.5116794,2.44062919 C2.5116794,2.18794529 2.72065113,1.9818345 2.97684243,1.9818345 L31.7054314,1.9818345 C31.6722773,2.10669008 31.6471605,2.23550932 31.6471605,2.36928315 L31.6471605,8.12056688 C29.06214,9.27894915 24.5853227,13.0711895 23.1838055,14.453519 L15.9652389,21.5732595 C15.8697951,21.5692958 15.775356,21.5593867 15.6789075,21.5593867 C12.6940277,21.5593867 10.1903857,23.6650858 9.66795635,26.5298276 L9.5594518,26.6021645 L9.53935837,27.1332962 C9.50519953,28.0667402 9.2359475,31.1484929 7.18541243,31.638006 C6.66599713,31.7658343 6.32340406,32.2573293 6.38870773,32.7795427 L6.55045988,33.6911866 L13.5630688,33.6911866 L15.6789075,33.661459 C19.0616373,33.661459 21.8144379,30.9463458 21.8144379,27.6099274 C21.8144379,27.4186804 21.8033866,27.2304061 21.7853025,27.0431227 L28.8672337,20.0591379 C30.0959473,18.8462552 32.47501,16.1192509 34.0322512,13.8728415 L43.3093903,13.8728415 C43.4450209,13.8728415 43.5756283,13.8480686 43.7032216,13.8153683 L43.7032216,38.6457728 L2.5116794,38.6457728 Z" id="Shape"></path>
                                <ellipse id="Oval" cx="15.5724123" cy="25.7638486" rx="1.00467176" ry="1"></ellipse>
                                <ellipse id="Oval" cx="17.5817558" cy="27.7456831" rx="1.00467176" ry="1"></ellipse>
                                <ellipse id="Oval" cx="13.5630688" cy="27.7456831" rx="1.00467176" ry="1"></ellipse>
                                <ellipse id="Oval" cx="15.5724123" cy="29.7275176" rx="1.00467176" ry="1"></ellipse>
                            </g>
                        </g>
                    </g>
                </g>
            </g>
        </g>
    </g>
</svg>